# xmcd CD database file generated by Grip 3.2.0
# 
# Track frame offsets:
#       150
#       18427
#       46097
#       74840
#       87162
#       113485
#       132297
#       169327
#       199912
#       217257
#       251740
#       289997
# 
# Disc length: 4167 seconds
# 
# Revision: 2
# Processed by: cddbd v1.5.2PL0 Copyright (c) Steve Scherf et al.
# Submitted via: Grip 3.2.0
# 
DISCID=ba10450c
DTITLE=Marc Ford - The Neptune Blues Club
DYEAR=2008
DGENRE=Other
TTITLE0=Main Drain
TTITLE1=Locked Down Tight
TTITLE2=Freedom Fighter
TTITLE3=Go Too Soon
TTITLE4=Don't Get Me Killed
TTITLE5=Last Time Around
TTITLE6=Spaceman
TTITLE7=Pay For My Mistakes
TTITLE8=Shame On Me
TTITLE9=Mother's Day
TTITLE10=Smilin
TTITLE11=Keep Holdin On
EXTD=YEAR: 2008
EXTT0=
EXTT1=
EXTT2=
EXTT3=
EXTT4=
EXTT5=
EXTT6=
EXTT7=
EXTT8=
EXTT9=
EXTT10=
EXTT11=
PLAYORDER=
